<svg width="300" height="300" viewBox="0 0 300 300" fill="none" xmlns="http://www.w3.org/2000/svg">
<g clip-path="url(#clip0_483_16)">
<rect width="300" height="300" fill="#2E2E2E"/>
<g clip-path="url(#clip1_483_16)">
<mask id="mask0_483_16" style="mask-type:luminance" maskUnits="userSpaceOnUse" x="0" y="0" width="300" height="300">
<path d="M300 0H0V300H300V0Z" fill="white"/>
</mask>
<g mask="url(#mask0_483_16)">
<mask id="mask1_483_16" style="mask-type:luminance" maskUnits="userSpaceOnUse" x="0" y="0" width="300" height="300">
<path d="M300 0H0V300H300V0Z" fill="white"/>
</mask>
<g mask="url(#mask1_483_16)">
<path d="M54.4258 18.1914V151H19.8906V18.1914H54.4258ZM141.461 58.3867H109.387V48.543C109.387 43.9492 108.977 41.0234 108.156 39.7656C107.336 38.5078 105.969 37.8789 104.055 37.8789C101.977 37.8789 100.391 38.7266 99.2969 40.4219C98.2578 42.1172 97.7383 44.6875 97.7383 48.1328C97.7383 52.5625 98.3398 55.8984 99.543 58.1406C100.691 60.3828 103.945 63.0898 109.305 66.2617C124.672 75.3945 134.352 82.8867 138.344 88.7383C142.336 94.5898 144.332 104.023 144.332 117.039C144.332 126.5 143.211 133.473 140.969 137.957C138.781 142.441 134.516 146.215 128.172 149.277C121.828 152.285 114.445 153.789 106.023 153.789C96.7812 153.789 88.8789 152.039 82.3164 148.539C75.8086 145.039 71.543 140.582 69.5195 135.168C67.4961 129.754 66.4844 122.07 66.4844 112.117V103.422H98.5586V119.582C98.5586 124.559 98.9961 127.758 99.8711 129.18C100.801 130.602 102.414 131.312 104.711 131.312C107.008 131.312 108.703 130.41 109.797 128.605C110.945 126.801 111.52 124.121 111.52 120.566C111.52 112.746 110.453 107.633 108.32 105.227C106.133 102.82 100.746 98.8008 92.1602 93.168C83.5742 87.4805 77.8867 83.3516 75.0977 80.7812C72.3086 78.2109 69.9844 74.6562 68.125 70.1172C66.3203 65.5781 65.418 59.7812 65.418 52.7266C65.418 42.5547 66.7031 35.1172 69.2734 30.4141C71.8984 25.7109 76.1094 22.0469 81.9062 19.4219C87.7031 16.7422 94.7031 15.4023 102.906 15.4023C111.875 15.4023 119.504 16.8516 125.793 19.75C132.137 22.6484 136.32 26.3125 138.344 30.7422C140.422 35.1172 141.461 42.582 141.461 53.1367V58.3867ZM189.777 18.1914V151H155.242V18.1914H189.777ZM280.75 18.1914V151H250.48L232.516 90.625V151H203.641V18.1914H232.516L251.875 77.9922V18.1914H280.75Z" fill="white"/>
<path d="M19.543 171.986H29.0791C35.2347 171.986 39.3923 172.269 41.5518 172.834C43.7314 173.399 45.3864 174.327 46.5166 175.619C47.6468 176.911 48.3532 178.354 48.6357 179.948C48.9183 181.522 49.0596 184.631 49.0596 189.272V206.437C49.0596 210.837 48.8477 213.784 48.4238 215.277C48.0202 216.751 47.3037 217.911 46.2744 218.759C45.2451 219.586 43.9736 220.172 42.46 220.515C40.9463 220.838 38.6657 220.999 35.6182 220.999H19.543V171.986ZM32.2881 180.372V212.613C34.1247 212.613 35.2549 212.25 35.6787 211.523C36.1025 210.777 36.3145 208.769 36.3145 205.499V186.457C36.3145 184.237 36.2438 182.814 36.1025 182.188C35.9613 181.563 35.6383 181.109 35.1338 180.826C34.6292 180.523 33.6807 180.372 32.2881 180.372ZM53.8125 171.986H75.0645V181.795H66.5576V191.089H74.5195V200.413H66.5576V211.19H75.9121V220.999H53.8125V171.986ZM109.879 171.986L103.4 220.999H84.0557L76.6992 171.986H90.1406C91.6947 185.488 92.8047 196.901 93.4707 206.226C94.1367 196.8 94.833 188.425 95.5596 181.099L96.4375 171.986H109.879ZM112.059 171.986H133.311V181.795H124.804V191.089H132.766V200.413H124.804V211.19H134.158V220.999H112.059V171.986ZM150.597 171.986V211.19H158.347V220.999H137.852V171.986H150.597ZM190.588 200.686C190.588 205.61 190.467 209.102 190.225 211.16C190.003 213.199 189.276 215.065 188.045 216.761C186.834 218.456 185.189 219.758 183.11 220.666C181.032 221.574 178.61 222.028 175.845 222.028C173.221 222.028 170.86 221.604 168.761 220.757C166.682 219.889 165.007 218.597 163.735 216.882C162.464 215.166 161.707 213.299 161.465 211.281C161.223 209.263 161.102 205.731 161.102 200.686V192.3C161.102 187.375 161.213 183.894 161.435 181.855C161.677 179.797 162.403 177.92 163.614 176.225C164.845 174.529 166.5 173.228 168.579 172.319C170.658 171.411 173.08 170.957 175.845 170.957C178.468 170.957 180.82 171.391 182.898 172.259C184.997 173.106 186.683 174.388 187.954 176.103C189.226 177.819 189.982 179.686 190.225 181.704C190.467 183.722 190.588 187.254 190.588 192.3V200.686ZM177.843 184.58C177.843 182.299 177.712 180.846 177.449 180.221C177.207 179.575 176.692 179.252 175.905 179.252C175.239 179.252 174.725 179.514 174.361 180.039C174.018 180.544 173.847 182.057 173.847 184.58V207.467C173.847 210.312 173.958 212.068 174.18 212.734C174.422 213.4 174.967 213.733 175.814 213.733C176.682 213.733 177.237 213.35 177.479 212.583C177.722 211.816 177.843 209.99 177.843 207.103V184.58ZM195.371 171.986H208.207C211.678 171.986 214.342 172.259 216.199 172.804C218.076 173.349 219.479 174.136 220.407 175.165C221.356 176.194 221.992 177.446 222.314 178.919C222.658 180.372 222.829 182.632 222.829 185.7V189.969C222.829 193.097 222.506 195.378 221.86 196.811C221.215 198.243 220.024 199.343 218.288 200.11C216.573 200.877 214.322 201.261 211.537 201.261H208.116V220.999H195.371V171.986ZM208.116 180.372V192.845C208.479 192.865 208.792 192.875 209.055 192.875C210.225 192.875 211.033 192.592 211.477 192.027C211.941 191.442 212.173 190.241 212.173 188.425V184.398C212.173 182.723 211.91 181.633 211.386 181.129C210.861 180.624 209.771 180.372 208.116 180.372ZM226.492 171.986H247.744V181.795H239.237V191.089H247.199V200.413H239.237V211.19H248.592V220.999H226.492V171.986ZM252.285 171.986H261.307C267.321 171.986 271.388 172.218 273.507 172.683C275.646 173.147 277.382 174.338 278.714 176.255C280.066 178.152 280.742 181.189 280.742 185.367C280.742 189.182 280.268 191.745 279.319 193.057C278.371 194.368 276.504 195.156 273.719 195.418C276.242 196.044 277.937 196.881 278.805 197.931C279.673 198.98 280.207 199.949 280.409 200.837C280.631 201.705 280.742 204.117 280.742 208.072V220.999H268.905V204.712C268.905 202.088 268.693 200.464 268.27 199.838C267.866 199.212 266.786 198.899 265.03 198.899V220.999H252.285V171.986ZM265.03 180.372V191.27C266.463 191.27 267.462 191.079 268.027 190.695C268.613 190.292 268.905 189.01 268.905 186.851V184.156C268.905 182.602 268.623 181.583 268.058 181.099C267.513 180.614 266.504 180.372 265.03 180.372Z" fill="white"/>
<path d="M32.2881 231.988V271.192H40.0381V281.001H19.543V231.988H32.2881ZM65.165 231.988L72.4609 281.001H59.4131L58.7773 272.191H54.2061L53.4492 281.001H40.25L46.7285 231.988H65.165ZM58.4141 263.503C57.7682 257.953 57.1224 251.101 56.4766 242.947C55.1849 252.312 54.3776 259.164 54.0547 263.503H58.4141ZM74.6406 231.988H87.3555C91.3717 231.988 94.4092 232.301 96.4678 232.927C98.5465 233.552 100.222 234.824 101.493 236.741C102.765 238.638 103.4 241.706 103.4 245.944C103.4 248.81 102.946 250.808 102.038 251.939C101.15 253.069 99.3841 253.937 96.7402 254.542C99.6868 255.208 101.685 256.318 102.734 257.872C103.784 259.406 104.309 261.767 104.309 264.956V269.497C104.309 272.807 103.925 275.259 103.158 276.854C102.411 278.448 101.211 279.538 99.5557 280.123C97.9007 280.708 94.5101 281.001 89.3838 281.001H74.6406V231.988ZM87.3857 240.374V251.272C87.9307 251.252 88.3545 251.242 88.6572 251.242C89.9085 251.242 90.7057 250.939 91.0488 250.334C91.3919 249.708 91.5635 247.942 91.5635 245.036C91.5635 243.502 91.4222 242.433 91.1396 241.827C90.8571 241.202 90.4837 240.808 90.0195 240.647C89.5755 240.485 88.6976 240.394 87.3857 240.374ZM87.3857 258.901V272.615C89.182 272.555 90.3223 272.272 90.8066 271.768C91.3112 271.263 91.5635 270.022 91.5635 268.044V263.473C91.5635 261.374 91.3415 260.102 90.8975 259.658C90.4535 259.214 89.2829 258.962 87.3857 258.901Z" fill="white"/>
</g>
<path d="M295 5H5V295H295V5Z" stroke="white" stroke-width="10"/>
</g>
</g>
</g>
<defs>
<clipPath id="clip0_483_16">
<rect width="300" height="300" fill="white"/>
</clipPath>
<clipPath id="clip1_483_16">
<rect width="300" height="300" fill="white"/>
</clipPath>
</defs>
</svg>
